Coordinates
version=1
nRows=22
nColumns=24
inDegrees=yes

Units are S.I. units (second, meters, Newtons, ...)
Angles are in degrees.

endheader
time	pelvis_tilt	pelvis_list	pelvis_rotation	pelvis_tx	pelvis_ty	pelvis_tz	hip_flexion_r	hip_adduction_r	hip_rotation_r	knee_angle_r	ankle_angle_r	subtalar_angle_r	mtp_angle_r	hip_flexion_l	hip_adduction_l	hip_rotation_l	knee_angle_l	ankle_angle_l	subtalar_angle_l	mtp_angle_l	lumbar_extension	lumbar_bending	lumbar_rotation
      4.71500000	     -8.15531700	     -0.30239798	     -2.65380268	     -1.95477763	     -0.00909927	      0.47195480	      1.15147540	      3.85036870	      4.37923093	     -5.95372165	      1.19619978	     -4.87060075	      2.44123338	     31.79582170	     -2.92704178	     -3.60232945	    -35.59550243	     -8.44557072	     -9.28522708	     17.32834179	      7.04323495	      0.10836538	      3.93246826
      4.72000000	     -8.18006310	     -0.11017494	     -2.95981229	     -1.94958706	     -0.00956623	      0.47204805	      0.88371092	      3.64481998	      4.64404508	     -6.07192738	      1.50608803	     -4.84765311	      2.33493197	     31.75893682	     -2.87376967	     -3.67219968	    -33.68839228	     -8.04508576	     -8.65090041	     17.31611440	      7.02693962	      0.00499359	      4.18541245
      4.72500000	     -8.19405554	      0.07186106	     -3.26769604	     -1.94439925	     -0.01003783	      0.47215716	      0.61566138	      3.44999872	      4.89385595	     -6.21024760	      1.81411979	     -4.81234796	      2.22270778	     31.68238455	     -2.83576549	     -3.71122216	    -31.74993872	     -7.66396308	     -7.97888171	     17.26056450	      6.99573791	     -0.09500500	      4.43503534
      4.73000000	     -8.20529199	      0.24012914	     -3.57585626	     -1.93922832	     -0.01052164	      0.47221846	      0.35740574	      3.26457311	      5.11960700	     -6.36738238	      2.11660160	     -4.76493049	      2.12365776	     31.58059637	     -2.81035676	     -3.71232923	    -29.79393468	     -7.32291636	     -7.29881916	     17.14391431	      6.95341951	     -0.17381106	      4.66838666
      4.73500000	     -8.22873526	      0.39932040	     -3.87240540	     -1.93399341	     -0.01104730	      0.47227811	      0.10899727	      3.08892962	      5.30435553	     -6.52177106	      2.41129919	     -4.71516457	      2.05899740	     31.46741421	     -2.79705474	     -3.70961290	    -27.82416648	     -7.00782571	     -6.64720707	     16.97927006	      6.93461107	     -0.25025457	      4.88367217
      4.74000000	     -8.33023880	      0.54343996	     -4.10268470	     -1.92869900	     -0.01169873	      0.47224046	     -0.06673646	      2.92997200	      5.43807138	     -6.66187661	      2.67405657	     -4.72420387	      2.06279563	     31.42955345	     -2.76870585	     -3.61812173	    -25.85210884	     -6.80962299	     -6.10384899	     16.81791165	      7.00794560	     -0.31427074	      4.97780106
      4.74500000	     -8.32084178	      0.68677369	     -4.44906729	     -1.92339326	     -0.01222415	      0.47233885	     -0.34577070	      2.76456459	      5.61279851	     -6.82285195	      2.95726782	     -4.62728510	      2.05602381	     31.22991424	     -2.81319626	     -3.69305920	    -23.87817074	     -6.55041139	     -5.46877581	     16.56445734	      6.96055446	     -0.36996817	      5.24345015
      4.75000000	     -8.29330687	      0.77217781	     -4.76482810	     -1.91807471	     -0.01276012	      0.47239503	     -0.65143891	      2.65907010	      5.70021615	     -6.97902505	      3.19818772	     -4.51797259	      2.01311076	     31.00693324	     -2.89833808	     -3.72583480	    -21.94251857	     -6.31842985	     -4.86157201	     16.16795859	      6.88870098	     -0.37615754	      5.49517207
      4.75500000	     -8.28044593	      0.84229434	     -5.07162621	     -1.91271538	     -0.01336983	      0.47240603	     -0.93732974	      2.56635869	      5.77626161	     -7.15426431	      3.46247933	     -4.41116757	      1.99071059	     30.78739839	     -2.99312129	     -3.75007414	    -20.03528702	     -6.10352155	     -4.29749910	     15.72413218	      6.83607466	     -0.36473243	      5.69652954
      4.76000000	     -8.33864045	      0.90217944	     -5.35404234	     -1.90727971	     -0.01408803	      0.47235786	     -1.16149622	      2.48317727	      5.86614186	     -7.31118027	      3.69709230	     -4.34661785	      2.02323578	     30.62650556	     -3.08964071	     -3.73359457	    -18.13479902	     -6.01953571	     -3.83891236	     15.39820833	      6.86796499	     -0.33649027	      5.82974533
      4.76500000	     -8.25419147	      0.94634427	     -5.65260127	     -1.90180324	     -0.01463257	      0.47233589	     -1.54405007	      2.39865030	      5.86094477	     -7.46196715	      3.92300833	     -4.15843780	      1.99170813	     30.28783838	     -3.20063467	     -3.80388223	    -16.26521242	     -5.90791761	     -3.30301440	     14.93352156	      6.74773313	     -0.31028339	      6.03729727
      4.77000000	     -8.30085196	      0.99620547	     -5.97665178	     -1.89624655	     -0.01534976	      0.47228184	     -1.78101350	      2.31015915	      5.95549971	     -7.62498131	      4.13484141	     -4.03819463	      2.05876264	     30.06561418	     -3.31914105	     -3.84427069	    -14.41038703	     -5.91805996	     -2.94671348	     14.63714923	      6.78266968	     -0.26654261	      6.22476014
      4.77500000	     -8.26155203	      1.05628900	     -6.29225143	     -1.89063808	     -0.01595577	      0.47221636	     -2.11338202	      2.19266815	      5.99639562	     -7.78334205	      4.34112728	     -3.84934592	      2.12550955	     29.73152079	     -3.41077970	     -3.90254244	    -12.59087630	     -5.96043462	     -2.57577828	     14.34716424	      6.73187440	     -0.24895082	      6.42085439
      4.78000000	     -8.21095243	      1.12529631	     -6.58264672	     -1.88496031	     -0.01653410	      0.47209333	     -2.46377458	      2.05215926	      6.00756312	     -7.93508224	      4.53531570	     -3.61938698	      2.20115223	     29.37775351	     -3.47068672	     -3.93509661	    -10.83039261	     -6.05346755	     -2.22137150	     14.08456898	      6.67910833	     -0.24477716	      6.59592116
      4.78500000	     -8.15920619	      1.20815148	     -6.87512783	     -1.87923814	     -0.01710749	      0.47196213	     -2.79947887	      1.88807545	      6.01673762	     -8.11658832	      4.73633563	     -3.36670818	      2.30743368	     29.01557846	     -3.50977659	     -3.92913854	     -9.14320242	     -6.17219002	     -1.90035853	     13.86297980	      6.63391628	     -0.26158307	      6.75777689
      4.79000000	     -8.10217073	      1.30003985	     -7.14987423	     -1.87347356	     -0.01764933	      0.47179841	     -3.13731240	      1.70288911	      6.01493917	     -8.30435539	      4.92024706	     -3.07373877	      2.43639668	     28.65359093	     -3.52394864	     -3.88598727	     -7.55435642	     -6.33606666	     -1.58222055	     13.67119671	      6.58997315	     -0.29387074	      6.90763715
      4.79500000	     -8.04212307	      1.39921177	     -7.41369275	     -1.86766230	     -0.01817055	      0.47159010	     -3.46964222	      1.49803383	      6.01198725	     -8.50928955	      5.09252500	     -2.75018005	      2.58718487	     28.29843153	     -3.51794197	     -3.79686387	     -6.08344766	     -6.51924970	     -1.26564962	     13.50472328	      6.55300762	     -0.33655932	      7.05266666
      4.80000000	     -7.99573532	      1.50499089	     -7.66953535	     -1.86181412	     -0.01869546	      0.47134675	     -3.77278475	      1.27909923	      6.01808091	     -8.74065852	      5.24673767	     -2.42901813	      2.75157030	     27.97428853	     -3.49914913	     -3.64988415	     -4.75230635	     -6.70373315	     -0.93373320	     13.36148452	      6.53749612	     -0.38633094	      7.18347090
      4.80500000	     -7.95090793	      1.61464276	     -7.91368925	     -1.85591660	     -0.01920284	      0.47108081	     -4.06338992	      1.04871146	      6.03533017	     -8.99564125	      5.37757878	     -2.09681211	      2.93028933	     27.67221083	     -3.46828927	     -3.47013317	     -3.57338254	     -6.88462903	     -0.57967353	     13.23531029	      6.53253622	     -0.44504997	      7.31147321
      4.81000000	     -7.91477098	      1.72799390	     -8.15167550	     -1.84998015	     -0.01970569	      0.47079022	     -4.32829115	      0.80938876	      6.07164400	     -9.28242047	      5.48429970	     -1.77643271	      3.11966706	     27.40553268	     -3.42994706	     -3.26091859	     -2.56499030	     -7.04262116	     -0.19271677	     13.12896368	      6.54332993	     -0.50909598	      7.43117421
      4.81500000	     -7.99120426	      1.78677247	     -8.31002789	     -1.84398548	     -0.02033388	      0.47041960	     -4.49296190	      0.65330895	      6.16245259	     -9.56678752	      5.46078271	     -1.64675156	      3.20461683	     27.31008873	     -3.42890002	     -2.89320428	     -1.77173086	     -7.16366396	      0.21613210	     13.07994096	      6.68033068	     -0.51610014	      7.48095988
      4.82000000	     -7.88559537	      1.95480027	     -8.61573996	     -1.83796687	     -0.02070531	      0.47013501	     -4.76886744	      0.31998300	      6.22965435	     -9.94230887	      5.59083890	     -1.19416784	      3.54198140	     27.00782956	     -3.34479615	     -2.81634715	     -1.10081229	     -7.26503912	      0.67123773	     12.99053392	      6.63413182	     -0.63886983	      7.68485902
